<?xml version="1.0" encoding="UTF-8"?>
<svg width="27px" height="23px" viewBox="0 0 27 23" version="1.1" xmlns="http://www.w3.org/2000/svg" xmlns:xlink="http://www.w3.org/1999/xlink">
    <title>3B88B177-0B29-4305-B9A4-330E07225DCF</title>
    <g id="Map-Copy" stroke="none" stroke-width="1" fill="none" fill-rule="evenodd">
        <g id="Category-stage-2" transform="translate(-329.000000, -375.000000)" fill="#8DC894" fill-rule="nonzero">
            <g id="back-button-copy-2" transform="translate(313.000000, 357.000000)">
                <path d="M41.0048258,34.7253287 L29.2528233,34.753685 L29.2528233,34.753685 L29.2528233,35.0838849 C29.2528233,36.7041355 29.2528233,37.7862221 29.2528233,39.4064727 C29.3039834,40.0507907 28.9169798,40.6512155 28.3022345,40.8812834 C27.6985442,41.1294519 27.0013414,40.9806394 26.5568911,40.5087534 C26.5075436,40.462825 26.4581961,40.4143451 26.4088486,40.3658651 L16.5393471,30.6341554 C16.1972995,30.3500559 16,29.9323611 16,29.4923253 C16,29.0522896 16.1972995,28.6345947 16.5393471,28.3504952 L26.4555988,18.5958213 C26.8916719,18.0461569 27.64813,17.8509949 28.3028401,18.1192432 C28.9575502,18.3874915 29.3487021,19.052853 29.2580178,19.7440304 C29.2424344,20.8258985 29.2580178,21.905215 29.2580178,22.9870831 L29.2580178,24.1748522 L41,24.1748522 C42.1045695,24.1748522 43,25.0702827 43,26.1748522 L43,32.7253345 C43,33.8280199 42.107508,34.7226681 41.0048258,34.7253287 Z" id="Path_61"></path>
            </g>
        </g>
    </g>
</svg>