<?xml version="1.0" encoding="UTF-8"?>
<svg width="9px" height="15px" viewBox="0 0 9 15" version="1.1" xmlns="http://www.w3.org/2000/svg" xmlns:xlink="http://www.w3.org/1999/xlink">
    <title>1BD4AB42-7302-4972-9F34-E99295EABCBF</title>
    <g id="Map" stroke="none" stroke-width="1" fill="none" fill-rule="evenodd">
        <g id="First-page-/post" transform="translate(-601.000000, -388.000000)" fill="#D7D7DE">
            <g id="Group-6-Copy-2" transform="translate(605.500377, 395.500000) scale(-1, 1) rotate(-90.000000) translate(-605.500377, -395.500000) translate(598.000019, 390.999976)">
                <path d="M12.4323113,0.439026987 C13.0204632,-0.147493754 13.9727235,-0.146171476 14.5592442,0.441980377 C15.1478726,1.0322457 15.1478715,1.98752013 14.5592419,2.57778418 L14.5592419,2.57778418 L8.59550168,8.55808375 L8.59550168,8.55808375 C8.29129466,8.86143673 7.89457359,9.00761647 7.50039763,8.99974592 C7.1061412,9.00761647 6.70942013,8.86143673 6.40819701,8.56106755 L6.40521311,8.55808375 L0.441472892,2.57778418 C-0.147156731,1.98752013 -0.147157762,1.0322457 0.441470588,0.441980377 C1.02799133,-0.146171476 1.98025162,-0.147493754 2.56840347,0.439026987 C2.56938874,0.440009523 2.57037264,0.440993426 2.57135518,0.441978694 L7.5,5.384 L12.4293596,0.441978694 C12.4298509,0.44148606 12.4303425,0.440993767 12.4308344,0.440501816 Z" id="Combined-Shape-Copy"></path>
            </g>
        </g>
    </g>
</svg>